<svg version="1.1" id="Layer_1" xmlns="http://www.w3.org/2000/svg" viewBox="0 0 64 64" xml:space="preserve"><style>.st4{opacity:.2}.st5{fill:#231f20}</style><circle cx="32" cy="32" r="32" style="fill:#e0e0d1"/><path d="M20 50c0 1.1-.9 2-2 2h-2c-1.1 0-2-.9-2-2V39c0-1.1.9-2 2-2h2c1.1 0 2 .9 2 2zm30 0c0 1.1-.9 2-2 2h-2c-1.1 0-2-.9-2-2V39c0-1.1.9-2 2-2h2c1.1 0 2 .9 2 2z" style="opacity:.2;fill:#231f20"/><path d="M20 48c0 1.1-.9 2-2 2h-2c-1.1 0-2-.9-2-2V37c0-1.1.9-2 2-2h2c1.1 0 2 .9 2 2zm30 0c0 1.1-.9 2-2 2h-2c-1.1 0-2-.9-2-2V37c0-1.1.9-2 2-2h2c1.1 0 2 .9 2 2z" style="fill:#4f5d73"/><g class="st4"><path class="st5" d="M44 37H20c-3.3 0-6-2.7-6-6v-.4l2-10.1c1-3.5 3.2-5.5 6-5.5h20c2.8 0 5 2 5.9 5.5v.1L50 31c0 3.3-2.7 6-6 6m-26-5.8c.1 1 .9 1.8 2 1.8h24c1 0 1.9-.8 2-1.8l-1.9-9.7c-.3-.8-.9-2.5-2.1-2.5H22c-1.2 0-1.8 1.7-2.1 2.5z"/></g><path d="M48 29c0 2.2-1.8 4-4 4H20c-2.2 0-4-1.8-4-4l2-10c.5-2 1.8-4 4-4h20c2.2 0 3.5 2 4 4z" style="fill:none;stroke:#c75c5c;stroke-width:4;stroke-miterlimit:10"/><g class="st4"><path class="st5" d="M52 42c0 2.2-1.8 4-4 4H16c-2.2 0-4-1.8-4-4v-5c0-2.2 1.8-4 4-4h32c2.2 0 4 1.8 4 4z"/><path class="st5" d="M48 48H16c-3.3 0-6-2.7-6-6v-5c0-3.3 2.7-6 6-6h32c3.3 0 6 2.7 6 6v5c0 3.3-2.7 6-6 6M16 35c-1.1 0-2 .9-2 2v5c0 1.1.9 2 2 2h32c1.1 0 2-.9 2-2v-5c0-1.1-.9-2-2-2z"/></g><path d="M52 40c0 2.2-1.8 4-4 4H16c-2.2 0-4-1.8-4-4v-5c0-2.2 1.8-4 4-4h32c2.2 0 4 1.8 4 4z" style="fill:#c75c5c;stroke:#c75c5c;stroke-width:4;stroke-miterlimit:10"/><path d="M21 38c0 2.2-1.8 4-4 4s-4-1.8-4-4 1.8-4 4-4 4 1.8 4 4zm30 0c0 2.2-1.8 4-4 4s-4-1.8-4-4 1.8-4 4-4 4 1.8 4 4z" style="fill:#f5cf87;stroke:#c75c5c;stroke-width:2;stroke-miterlimit:10"/></svg>